G04 #@! TF.GenerationSoftware,KiCad,Pcbnew,(6.0.1)*
G04 #@! TF.CreationDate,2022-09-26T11:52:35-04:00*
G04 #@! TF.ProjectId,consolizer,636f6e73-6f6c-4697-9a65-722e6b696361,rev?*
G04 #@! TF.SameCoordinates,Original*
G04 #@! TF.FileFunction,Soldermask,Bot*
G04 #@! TF.FilePolarity,Negative*
%FSLAX46Y46*%
G04 Gerber Fmt 4.6, Leading zero omitted, Abs format (unit mm)*
G04 Created by KiCad (PCBNEW (6.0.1)) date 2022-09-26 11:52:35*
%MOMM*%
%LPD*%
G01*
G04 APERTURE LIST*
G04 Aperture macros list*
%AMRoundRect*
0 Rectangle with rounded corners*
0 $1 Rounding radius*
0 $2 $3 $4 $5 $6 $7 $8 $9 X,Y pos of 4 corners*
0 Add a 4 corners polygon primitive as box body*
4,1,4,$2,$3,$4,$5,$6,$7,$8,$9,$2,$3,0*
0 Add four circle primitives for the rounded corners*
1,1,$1+$1,$2,$3*
1,1,$1+$1,$4,$5*
1,1,$1+$1,$6,$7*
1,1,$1+$1,$8,$9*
0 Add four rect primitives between the rounded corners*
20,1,$1+$1,$2,$3,$4,$5,0*
20,1,$1+$1,$4,$5,$6,$7,0*
20,1,$1+$1,$6,$7,$8,$9,0*
20,1,$1+$1,$8,$9,$2,$3,0*%
G04 Aperture macros list end*
%ADD10C,2.200000*%
%ADD11R,1.700000X1.700000*%
%ADD12O,1.700000X1.700000*%
%ADD13R,4.000000X4.000000*%
%ADD14RoundRect,0.237500X-0.237500X0.287500X-0.237500X-0.287500X0.237500X-0.287500X0.237500X0.287500X0*%
%ADD15R,1.100000X0.300000*%
%ADD16R,1.987500X1.362500*%
%ADD17R,3.100000X2.300000*%
%ADD18C,2.775000*%
%ADD19RoundRect,0.100000X-0.637500X-0.100000X0.637500X-0.100000X0.637500X0.100000X-0.637500X0.100000X0*%
G04 APERTURE END LIST*
D10*
X163300000Y-72800000D03*
X163400000Y-104700000D03*
X206000000Y-104700000D03*
D11*
X203000000Y-75900000D03*
D12*
X205540000Y-75900000D03*
D11*
X172200000Y-78600000D03*
D12*
X172200000Y-76060000D03*
X174740000Y-78600000D03*
X174740000Y-76060000D03*
X177280000Y-78600000D03*
X177280000Y-76060000D03*
D11*
X180500000Y-103300000D03*
D12*
X177960000Y-103300000D03*
X175420000Y-103300000D03*
X172880000Y-103300000D03*
X170340000Y-103300000D03*
X167800000Y-103300000D03*
D13*
X210500000Y-88800000D03*
D11*
X190500000Y-77900000D03*
D12*
X193040000Y-77900000D03*
X195580000Y-77900000D03*
D10*
X206100000Y-72700000D03*
D11*
X203000000Y-79000000D03*
D12*
X205540000Y-79000000D03*
D14*
X198100000Y-82900000D03*
X198100000Y-84650000D03*
D15*
X165700000Y-88170000D03*
X165700000Y-87670000D03*
X165700000Y-87170000D03*
X165700000Y-86670000D03*
X165700000Y-86170000D03*
X165700000Y-85670000D03*
X165700000Y-85170000D03*
X165700000Y-84670000D03*
X165700000Y-84170000D03*
X165700000Y-83670000D03*
D16*
X163975000Y-84070000D03*
D17*
X164000000Y-82000000D03*
X164000000Y-89840000D03*
D15*
X165700000Y-99230000D03*
X165700000Y-98730000D03*
X165700000Y-98230000D03*
X165700000Y-97730000D03*
X165700000Y-97230000D03*
X165700000Y-96730000D03*
X165700000Y-96230000D03*
X165700000Y-95730000D03*
X165700000Y-95230000D03*
X165700000Y-94730000D03*
D17*
X164000000Y-100900000D03*
X164000000Y-93060000D03*
D18*
X188290000Y-99822000D03*
X197790000Y-99822000D03*
X193040000Y-99822000D03*
D19*
X190337500Y-85850000D03*
X190337500Y-85200000D03*
X190337500Y-84550000D03*
X190337500Y-83900000D03*
X190337500Y-83250000D03*
X190337500Y-82600000D03*
X190337500Y-81950000D03*
X196062500Y-81950000D03*
X196062500Y-82600000D03*
X196062500Y-83250000D03*
X196062500Y-83900000D03*
X196062500Y-84550000D03*
X196062500Y-85200000D03*
X196062500Y-85850000D03*
M02*
