%FSLAX45Y45*%
G04 Gerber Fmt 4.5, Leading zero omitted, Abs format (unit mm)*
G04 Created by KiCad (PCBNEW (6.0.1)) date 2022-09-26 11:52:51*
%MOMM*%
%LPD*%
G01*
G04 APERTURE LIST*
%TA.AperFunction,Profile*%
%ADD10C,0.100000*%
%TD*%
%ADD11C,0.200000*%
%ADD12C,0.220000*%
G04 APERTURE END LIST*
D10*
X16060000Y-7020000D02*
X21260000Y-7020000D01*
X21260000Y-7020000D02*
X21260000Y-10740000D01*
X21260000Y-10740000D02*
X16060000Y-10740000D01*
X16060000Y-10740000D02*
X16060000Y-7020000D01*
D11*
D12*
X16220000Y-7170000D02*
X16440000Y-7390000D01*
X16440000Y-7170000D02*
X16220000Y-7390000D01*
X16230000Y-10360000D02*
X16450000Y-10580000D01*
X16450000Y-10360000D02*
X16230000Y-10580000D01*
X20490000Y-10360000D02*
X20710000Y-10580000D01*
X20710000Y-10360000D02*
X20490000Y-10580000D01*
X20500000Y-7160000D02*
X20720000Y-7380000D01*
X20720000Y-7160000D02*
X20500000Y-7380000D01*
D11*
X16312619Y-11055476D02*
X16312619Y-10855476D01*
X16360238Y-10855476D01*
X16388809Y-10865000D01*
X16407857Y-10884048D01*
X16417381Y-10903095D01*
X16426905Y-10941190D01*
X16426905Y-10969762D01*
X16417381Y-11007857D01*
X16407857Y-11026905D01*
X16388809Y-11045952D01*
X16360238Y-11055476D01*
X16312619Y-11055476D01*
X16512619Y-11055476D02*
X16512619Y-10922143D01*
X16512619Y-10960238D02*
X16522143Y-10941190D01*
X16531667Y-10931667D01*
X16550714Y-10922143D01*
X16569762Y-10922143D01*
X16636428Y-11055476D02*
X16636428Y-10922143D01*
X16636428Y-10855476D02*
X16626905Y-10865000D01*
X16636428Y-10874524D01*
X16645952Y-10865000D01*
X16636428Y-10855476D01*
X16636428Y-10874524D01*
X16760238Y-11055476D02*
X16741190Y-11045952D01*
X16731667Y-11026905D01*
X16731667Y-10855476D01*
X16865000Y-11055476D02*
X16845952Y-11045952D01*
X16836429Y-11026905D01*
X16836429Y-10855476D01*
X17093571Y-11055476D02*
X17093571Y-10855476D01*
X17160238Y-10998333D01*
X17226905Y-10855476D01*
X17226905Y-11055476D01*
X17407857Y-11055476D02*
X17407857Y-10950714D01*
X17398333Y-10931667D01*
X17379286Y-10922143D01*
X17341190Y-10922143D01*
X17322143Y-10931667D01*
X17407857Y-11045952D02*
X17388810Y-11055476D01*
X17341190Y-11055476D01*
X17322143Y-11045952D01*
X17312619Y-11026905D01*
X17312619Y-11007857D01*
X17322143Y-10988810D01*
X17341190Y-10979286D01*
X17388810Y-10979286D01*
X17407857Y-10969762D01*
X17503095Y-10922143D02*
X17503095Y-11122143D01*
X17503095Y-10931667D02*
X17522143Y-10922143D01*
X17560238Y-10922143D01*
X17579286Y-10931667D01*
X17588810Y-10941190D01*
X17598333Y-10960238D01*
X17598333Y-11017381D01*
X17588810Y-11036429D01*
X17579286Y-11045952D01*
X17560238Y-11055476D01*
X17522143Y-11055476D01*
X17503095Y-11045952D01*
X17684048Y-11036429D02*
X17693571Y-11045952D01*
X17684048Y-11055476D01*
X17674524Y-11045952D01*
X17684048Y-11036429D01*
X17684048Y-11055476D01*
X17684048Y-10931667D02*
X17693571Y-10941190D01*
X17684048Y-10950714D01*
X17674524Y-10941190D01*
X17684048Y-10931667D01*
X17684048Y-10950714D01*
X15855000Y-11285000D02*
X16055000Y-11485000D01*
X16055000Y-11285000D02*
X15855000Y-11485000D01*
X16303095Y-11294524D02*
X16312619Y-11285000D01*
X16331667Y-11275476D01*
X16379286Y-11275476D01*
X16398333Y-11285000D01*
X16407857Y-11294524D01*
X16417381Y-11313571D01*
X16417381Y-11332619D01*
X16407857Y-11361190D01*
X16293571Y-11475476D01*
X16417381Y-11475476D01*
X16503095Y-11456428D02*
X16512619Y-11465952D01*
X16503095Y-11475476D01*
X16493571Y-11465952D01*
X16503095Y-11456428D01*
X16503095Y-11475476D01*
X16588809Y-11294524D02*
X16598333Y-11285000D01*
X16617381Y-11275476D01*
X16665000Y-11275476D01*
X16684048Y-11285000D01*
X16693571Y-11294524D01*
X16703095Y-11313571D01*
X16703095Y-11332619D01*
X16693571Y-11361190D01*
X16579286Y-11475476D01*
X16703095Y-11475476D01*
X16826905Y-11275476D02*
X16845952Y-11275476D01*
X16865000Y-11285000D01*
X16874524Y-11294524D01*
X16884048Y-11313571D01*
X16893571Y-11351667D01*
X16893571Y-11399286D01*
X16884048Y-11437381D01*
X16874524Y-11456428D01*
X16865000Y-11465952D01*
X16845952Y-11475476D01*
X16826905Y-11475476D01*
X16807857Y-11465952D01*
X16798333Y-11456428D01*
X16788810Y-11437381D01*
X16779286Y-11399286D01*
X16779286Y-11351667D01*
X16788810Y-11313571D01*
X16798333Y-11294524D01*
X16807857Y-11285000D01*
X16826905Y-11275476D01*
X17017381Y-11275476D02*
X17036429Y-11275476D01*
X17055476Y-11285000D01*
X17065000Y-11294524D01*
X17074524Y-11313571D01*
X17084048Y-11351667D01*
X17084048Y-11399286D01*
X17074524Y-11437381D01*
X17065000Y-11456428D01*
X17055476Y-11465952D01*
X17036429Y-11475476D01*
X17017381Y-11475476D01*
X16998333Y-11465952D01*
X16988810Y-11456428D01*
X16979286Y-11437381D01*
X16969762Y-11399286D01*
X16969762Y-11351667D01*
X16979286Y-11313571D01*
X16988810Y-11294524D01*
X16998333Y-11285000D01*
X17017381Y-11275476D01*
X17169762Y-11475476D02*
X17169762Y-11342143D01*
X17169762Y-11361190D02*
X17179286Y-11351667D01*
X17198333Y-11342143D01*
X17226905Y-11342143D01*
X17245952Y-11351667D01*
X17255476Y-11370714D01*
X17255476Y-11475476D01*
X17255476Y-11370714D02*
X17265000Y-11351667D01*
X17284048Y-11342143D01*
X17312619Y-11342143D01*
X17331667Y-11351667D01*
X17341190Y-11370714D01*
X17341190Y-11475476D01*
X17436429Y-11475476D02*
X17436429Y-11342143D01*
X17436429Y-11361190D02*
X17445952Y-11351667D01*
X17465000Y-11342143D01*
X17493571Y-11342143D01*
X17512619Y-11351667D01*
X17522143Y-11370714D01*
X17522143Y-11475476D01*
X17522143Y-11370714D02*
X17531667Y-11351667D01*
X17550714Y-11342143D01*
X17579286Y-11342143D01*
X17598333Y-11351667D01*
X17607857Y-11370714D01*
X17607857Y-11475476D01*
X17998333Y-11265952D02*
X17826905Y-11523095D01*
X18255476Y-11275476D02*
X18274524Y-11275476D01*
X18293571Y-11285000D01*
X18303095Y-11294524D01*
X18312619Y-11313571D01*
X18322143Y-11351667D01*
X18322143Y-11399286D01*
X18312619Y-11437381D01*
X18303095Y-11456428D01*
X18293571Y-11465952D01*
X18274524Y-11475476D01*
X18255476Y-11475476D01*
X18236429Y-11465952D01*
X18226905Y-11456428D01*
X18217381Y-11437381D01*
X18207857Y-11399286D01*
X18207857Y-11351667D01*
X18217381Y-11313571D01*
X18226905Y-11294524D01*
X18236429Y-11285000D01*
X18255476Y-11275476D01*
X18407857Y-11456428D02*
X18417381Y-11465952D01*
X18407857Y-11475476D01*
X18398333Y-11465952D01*
X18407857Y-11456428D01*
X18407857Y-11475476D01*
X18541190Y-11275476D02*
X18560238Y-11275476D01*
X18579286Y-11285000D01*
X18588810Y-11294524D01*
X18598333Y-11313571D01*
X18607857Y-11351667D01*
X18607857Y-11399286D01*
X18598333Y-11437381D01*
X18588810Y-11456428D01*
X18579286Y-11465952D01*
X18560238Y-11475476D01*
X18541190Y-11475476D01*
X18522143Y-11465952D01*
X18512619Y-11456428D01*
X18503095Y-11437381D01*
X18493571Y-11399286D01*
X18493571Y-11351667D01*
X18503095Y-11313571D01*
X18512619Y-11294524D01*
X18522143Y-11285000D01*
X18541190Y-11275476D01*
X18722143Y-11361190D02*
X18703095Y-11351667D01*
X18693571Y-11342143D01*
X18684048Y-11323095D01*
X18684048Y-11313571D01*
X18693571Y-11294524D01*
X18703095Y-11285000D01*
X18722143Y-11275476D01*
X18760238Y-11275476D01*
X18779286Y-11285000D01*
X18788810Y-11294524D01*
X18798333Y-11313571D01*
X18798333Y-11323095D01*
X18788810Y-11342143D01*
X18779286Y-11351667D01*
X18760238Y-11361190D01*
X18722143Y-11361190D01*
X18703095Y-11370714D01*
X18693571Y-11380238D01*
X18684048Y-11399286D01*
X18684048Y-11437381D01*
X18693571Y-11456428D01*
X18703095Y-11465952D01*
X18722143Y-11475476D01*
X18760238Y-11475476D01*
X18779286Y-11465952D01*
X18788810Y-11456428D01*
X18798333Y-11437381D01*
X18798333Y-11399286D01*
X18788810Y-11380238D01*
X18779286Y-11370714D01*
X18760238Y-11361190D01*
X18969762Y-11275476D02*
X18931667Y-11275476D01*
X18912619Y-11285000D01*
X18903095Y-11294524D01*
X18884048Y-11323095D01*
X18874524Y-11361190D01*
X18874524Y-11437381D01*
X18884048Y-11456428D01*
X18893571Y-11465952D01*
X18912619Y-11475476D01*
X18950714Y-11475476D01*
X18969762Y-11465952D01*
X18979286Y-11456428D01*
X18988810Y-11437381D01*
X18988810Y-11389762D01*
X18979286Y-11370714D01*
X18969762Y-11361190D01*
X18950714Y-11351667D01*
X18912619Y-11351667D01*
X18893571Y-11361190D01*
X18884048Y-11370714D01*
X18874524Y-11389762D01*
X19160238Y-11275476D02*
X19122143Y-11275476D01*
X19103095Y-11285000D01*
X19093571Y-11294524D01*
X19074524Y-11323095D01*
X19065000Y-11361190D01*
X19065000Y-11437381D01*
X19074524Y-11456428D01*
X19084048Y-11465952D01*
X19103095Y-11475476D01*
X19141190Y-11475476D01*
X19160238Y-11465952D01*
X19169762Y-11456428D01*
X19179286Y-11437381D01*
X19179286Y-11389762D01*
X19169762Y-11370714D01*
X19160238Y-11361190D01*
X19141190Y-11351667D01*
X19103095Y-11351667D01*
X19084048Y-11361190D01*
X19074524Y-11370714D01*
X19065000Y-11389762D01*
X19255476Y-11275476D02*
X19255476Y-11313571D01*
X19331667Y-11275476D02*
X19331667Y-11313571D01*
X19626905Y-11551667D02*
X19617381Y-11542143D01*
X19598333Y-11513571D01*
X19588810Y-11494524D01*
X19579286Y-11465952D01*
X19569762Y-11418333D01*
X19569762Y-11380238D01*
X19579286Y-11332619D01*
X19588810Y-11304048D01*
X19598333Y-11285000D01*
X19617381Y-11256428D01*
X19626905Y-11246905D01*
X19788810Y-11342143D02*
X19788810Y-11475476D01*
X19741190Y-11265952D02*
X19693571Y-11408809D01*
X19817381Y-11408809D01*
X20045952Y-11475476D02*
X20045952Y-11275476D01*
X20131667Y-11475476D02*
X20131667Y-11370714D01*
X20122143Y-11351667D01*
X20103095Y-11342143D01*
X20074524Y-11342143D01*
X20055476Y-11351667D01*
X20045952Y-11361190D01*
X20255476Y-11475476D02*
X20236429Y-11465952D01*
X20226905Y-11456428D01*
X20217381Y-11437381D01*
X20217381Y-11380238D01*
X20226905Y-11361190D01*
X20236429Y-11351667D01*
X20255476Y-11342143D01*
X20284048Y-11342143D01*
X20303095Y-11351667D01*
X20312619Y-11361190D01*
X20322143Y-11380238D01*
X20322143Y-11437381D01*
X20312619Y-11456428D01*
X20303095Y-11465952D01*
X20284048Y-11475476D01*
X20255476Y-11475476D01*
X20436429Y-11475476D02*
X20417381Y-11465952D01*
X20407857Y-11446905D01*
X20407857Y-11275476D01*
X20588810Y-11465952D02*
X20569762Y-11475476D01*
X20531667Y-11475476D01*
X20512619Y-11465952D01*
X20503095Y-11446905D01*
X20503095Y-11370714D01*
X20512619Y-11351667D01*
X20531667Y-11342143D01*
X20569762Y-11342143D01*
X20588810Y-11351667D01*
X20598333Y-11370714D01*
X20598333Y-11389762D01*
X20503095Y-11408809D01*
X20674524Y-11465952D02*
X20693571Y-11475476D01*
X20731667Y-11475476D01*
X20750714Y-11465952D01*
X20760238Y-11446905D01*
X20760238Y-11437381D01*
X20750714Y-11418333D01*
X20731667Y-11408809D01*
X20703095Y-11408809D01*
X20684048Y-11399286D01*
X20674524Y-11380238D01*
X20674524Y-11370714D01*
X20684048Y-11351667D01*
X20703095Y-11342143D01*
X20731667Y-11342143D01*
X20750714Y-11351667D01*
X20826905Y-11551667D02*
X20836429Y-11542143D01*
X20855476Y-11513571D01*
X20865000Y-11494524D01*
X20874524Y-11465952D01*
X20884048Y-11418333D01*
X20884048Y-11380238D01*
X20874524Y-11332619D01*
X20865000Y-11304048D01*
X20855476Y-11285000D01*
X20836429Y-11256428D01*
X20826905Y-11246905D01*
X21188810Y-11551667D02*
X21179286Y-11542143D01*
X21160238Y-11513571D01*
X21150714Y-11494524D01*
X21141190Y-11465952D01*
X21131667Y-11418333D01*
X21131667Y-11380238D01*
X21141190Y-11332619D01*
X21150714Y-11304048D01*
X21160238Y-11285000D01*
X21179286Y-11256428D01*
X21188810Y-11246905D01*
X21265000Y-11342143D02*
X21265000Y-11475476D01*
X21265000Y-11361190D02*
X21274524Y-11351667D01*
X21293571Y-11342143D01*
X21322143Y-11342143D01*
X21341190Y-11351667D01*
X21350714Y-11370714D01*
X21350714Y-11475476D01*
X21474524Y-11475476D02*
X21455476Y-11465952D01*
X21445952Y-11456428D01*
X21436429Y-11437381D01*
X21436429Y-11380238D01*
X21445952Y-11361190D01*
X21455476Y-11351667D01*
X21474524Y-11342143D01*
X21503095Y-11342143D01*
X21522143Y-11351667D01*
X21531667Y-11361190D01*
X21541190Y-11380238D01*
X21541190Y-11437381D01*
X21531667Y-11456428D01*
X21522143Y-11465952D01*
X21503095Y-11475476D01*
X21474524Y-11475476D01*
X21598333Y-11342143D02*
X21674524Y-11342143D01*
X21626905Y-11275476D02*
X21626905Y-11446905D01*
X21636429Y-11465952D01*
X21655476Y-11475476D01*
X21674524Y-11475476D01*
X21893571Y-11342143D02*
X21893571Y-11542143D01*
X21893571Y-11351667D02*
X21912619Y-11342143D01*
X21950714Y-11342143D01*
X21969762Y-11351667D01*
X21979286Y-11361190D01*
X21988810Y-11380238D01*
X21988810Y-11437381D01*
X21979286Y-11456428D01*
X21969762Y-11465952D01*
X21950714Y-11475476D01*
X21912619Y-11475476D01*
X21893571Y-11465952D01*
X22103095Y-11475476D02*
X22084048Y-11465952D01*
X22074524Y-11446905D01*
X22074524Y-11275476D01*
X22265000Y-11475476D02*
X22265000Y-11370714D01*
X22255476Y-11351667D01*
X22236429Y-11342143D01*
X22198333Y-11342143D01*
X22179286Y-11351667D01*
X22265000Y-11465952D02*
X22245952Y-11475476D01*
X22198333Y-11475476D01*
X22179286Y-11465952D01*
X22169762Y-11446905D01*
X22169762Y-11427857D01*
X22179286Y-11408809D01*
X22198333Y-11399286D01*
X22245952Y-11399286D01*
X22265000Y-11389762D01*
X22331667Y-11342143D02*
X22407857Y-11342143D01*
X22360238Y-11275476D02*
X22360238Y-11446905D01*
X22369762Y-11465952D01*
X22388809Y-11475476D01*
X22407857Y-11475476D01*
X22550714Y-11465952D02*
X22531667Y-11475476D01*
X22493571Y-11475476D01*
X22474524Y-11465952D01*
X22465000Y-11446905D01*
X22465000Y-11370714D01*
X22474524Y-11351667D01*
X22493571Y-11342143D01*
X22531667Y-11342143D01*
X22550714Y-11351667D01*
X22560238Y-11370714D01*
X22560238Y-11389762D01*
X22465000Y-11408809D01*
X22731667Y-11475476D02*
X22731667Y-11275476D01*
X22731667Y-11465952D02*
X22712619Y-11475476D01*
X22674524Y-11475476D01*
X22655476Y-11465952D01*
X22645952Y-11456428D01*
X22636428Y-11437381D01*
X22636428Y-11380238D01*
X22645952Y-11361190D01*
X22655476Y-11351667D01*
X22674524Y-11342143D01*
X22712619Y-11342143D01*
X22731667Y-11351667D01*
X22807857Y-11551667D02*
X22817381Y-11542143D01*
X22836428Y-11513571D01*
X22845952Y-11494524D01*
X22855476Y-11465952D01*
X22865000Y-11418333D01*
X22865000Y-11380238D01*
X22855476Y-11332619D01*
X22845952Y-11304048D01*
X22836428Y-11285000D01*
X22817381Y-11256428D01*
X22807857Y-11246905D01*
M02*
