G04 #@! TF.GenerationSoftware,KiCad,Pcbnew,(6.0.1)*
G04 #@! TF.CreationDate,2022-09-26T11:52:35-04:00*
G04 #@! TF.ProjectId,consolizer,636f6e73-6f6c-4697-9a65-722e6b696361,rev?*
G04 #@! TF.SameCoordinates,Original*
G04 #@! TF.FileFunction,Soldermask,Top*
G04 #@! TF.FilePolarity,Negative*
%FSLAX46Y46*%
G04 Gerber Fmt 4.6, Leading zero omitted, Abs format (unit mm)*
G04 Created by KiCad (PCBNEW (6.0.1)) date 2022-09-26 11:52:35*
%MOMM*%
%LPD*%
G01*
G04 APERTURE LIST*
G04 Aperture macros list*
%AMRoundRect*
0 Rectangle with rounded corners*
0 $1 Rounding radius*
0 $2 $3 $4 $5 $6 $7 $8 $9 X,Y pos of 4 corners*
0 Add a 4 corners polygon primitive as box body*
4,1,4,$2,$3,$4,$5,$6,$7,$8,$9,$2,$3,0*
0 Add four circle primitives for the rounded corners*
1,1,$1+$1,$2,$3*
1,1,$1+$1,$4,$5*
1,1,$1+$1,$6,$7*
1,1,$1+$1,$8,$9*
0 Add four rect primitives between the rounded corners*
20,1,$1+$1,$2,$3,$4,$5,0*
20,1,$1+$1,$4,$5,$6,$7,0*
20,1,$1+$1,$6,$7,$8,$9,0*
20,1,$1+$1,$8,$9,$2,$3,0*%
%AMFreePoly0*
4,1,22,0.500000,-0.750000,0.000000,-0.750000,0.000000,-0.745033,-0.079941,-0.743568,-0.215256,-0.701293,-0.333266,-0.622738,-0.424486,-0.514219,-0.481581,-0.384460,-0.499164,-0.250000,-0.500000,-0.250000,-0.500000,0.250000,-0.499164,0.250000,-0.499963,0.256109,-0.478152,0.396186,-0.417904,0.524511,-0.324060,0.630769,-0.204165,0.706417,-0.067858,0.745374,0.000000,0.744959,0.000000,0.750000,
0.500000,0.750000,0.500000,-0.750000,0.500000,-0.750000,$1*%
%AMFreePoly1*
4,1,20,0.000000,0.744959,0.073905,0.744508,0.209726,0.703889,0.328688,0.626782,0.421226,0.519385,0.479903,0.390333,0.500000,0.250000,0.500000,-0.250000,0.499851,-0.262216,0.476331,-0.402017,0.414519,-0.529596,0.319384,-0.634700,0.198574,-0.708877,0.061801,-0.746166,0.000000,-0.745033,0.000000,-0.750000,-0.500000,-0.750000,-0.500000,0.750000,0.000000,0.750000,0.000000,0.744959,
0.000000,0.744959,$1*%
G04 Aperture macros list end*
%ADD10RoundRect,0.237500X0.237500X-0.287500X0.237500X0.287500X-0.237500X0.287500X-0.237500X-0.287500X0*%
%ADD11C,2.200000*%
%ADD12R,0.300000X1.100000*%
%ADD13R,2.300000X3.100000*%
%ADD14R,1.700000X1.700000*%
%ADD15O,1.700000X1.700000*%
%ADD16R,4.000000X2.000000*%
%ADD17RoundRect,0.237500X-0.237500X0.287500X-0.237500X-0.287500X0.237500X-0.287500X0.237500X0.287500X0*%
%ADD18RoundRect,0.150000X0.512500X0.150000X-0.512500X0.150000X-0.512500X-0.150000X0.512500X-0.150000X0*%
%ADD19FreePoly0,0.000000*%
%ADD20FreePoly1,0.000000*%
%ADD21R,1.600000X0.550000*%
%ADD22R,0.550000X1.600000*%
%ADD23C,2.775000*%
G04 APERTURE END LIST*
D10*
X196500000Y-95150000D03*
X196500000Y-93400000D03*
X190700000Y-105075000D03*
X190700000Y-103325000D03*
D11*
X163300000Y-72800000D03*
X163400000Y-104700000D03*
X206000000Y-104700000D03*
D12*
X196170000Y-88700000D03*
X195670000Y-88700000D03*
X195170000Y-88700000D03*
X194670000Y-88700000D03*
X194170000Y-88700000D03*
X193670000Y-88700000D03*
X193170000Y-88700000D03*
X192670000Y-88700000D03*
X192170000Y-88700000D03*
X191670000Y-88700000D03*
X191170000Y-88700000D03*
X190670000Y-88700000D03*
X190170000Y-88700000D03*
X189670000Y-88700000D03*
D13*
X188000000Y-87000000D03*
X197840000Y-87000000D03*
D14*
X203000000Y-75900000D03*
D15*
X205540000Y-75900000D03*
D14*
X172200000Y-78600000D03*
D15*
X172200000Y-76060000D03*
X174740000Y-78600000D03*
X174740000Y-76060000D03*
X177280000Y-78600000D03*
X177280000Y-76060000D03*
D14*
X180500000Y-103300000D03*
D15*
X177960000Y-103300000D03*
X175420000Y-103300000D03*
X172880000Y-103300000D03*
X170340000Y-103300000D03*
X167800000Y-103300000D03*
D16*
X210500000Y-72800000D03*
X210500000Y-76800000D03*
X210500000Y-80800000D03*
X210500000Y-84800000D03*
X210500000Y-88800000D03*
X210500000Y-92800000D03*
X210500000Y-96800000D03*
X210500000Y-100800000D03*
X210500000Y-104800000D03*
D14*
X190500000Y-77900000D03*
D15*
X193040000Y-77900000D03*
X195580000Y-77900000D03*
D17*
X195500000Y-103400000D03*
X195500000Y-105150000D03*
D11*
X206100000Y-72700000D03*
D14*
X203000000Y-79000000D03*
D15*
X205540000Y-79000000D03*
D18*
X194037500Y-95200000D03*
X194037500Y-94250000D03*
X194037500Y-93300000D03*
X191762500Y-93300000D03*
X191762500Y-95200000D03*
D17*
X188600000Y-93425000D03*
X188600000Y-95175000D03*
D19*
X174150000Y-83500000D03*
D20*
X175450000Y-83500000D03*
D10*
X167700000Y-92900000D03*
X167700000Y-91150000D03*
D21*
X179050000Y-94800000D03*
X179050000Y-94000000D03*
X179050000Y-93200000D03*
X179050000Y-92400000D03*
X179050000Y-91600000D03*
X179050000Y-90800000D03*
X179050000Y-90000000D03*
X179050000Y-89200000D03*
D22*
X177600000Y-87750000D03*
X176800000Y-87750000D03*
X176000000Y-87750000D03*
X175200000Y-87750000D03*
X174400000Y-87750000D03*
X173600000Y-87750000D03*
X172800000Y-87750000D03*
X172000000Y-87750000D03*
D21*
X170550000Y-89200000D03*
X170550000Y-90000000D03*
X170550000Y-90800000D03*
X170550000Y-91600000D03*
X170550000Y-92400000D03*
X170550000Y-93200000D03*
X170550000Y-94000000D03*
X170550000Y-94800000D03*
D22*
X172000000Y-96250000D03*
X172800000Y-96250000D03*
X173600000Y-96250000D03*
X174400000Y-96250000D03*
X175200000Y-96250000D03*
X176000000Y-96250000D03*
X176800000Y-96250000D03*
X177600000Y-96250000D03*
D10*
X182000000Y-92900000D03*
X182000000Y-91150000D03*
D12*
X193830000Y-75275000D03*
X193330000Y-75275000D03*
X192830000Y-75275000D03*
X192330000Y-75275000D03*
D13*
X195500000Y-73575000D03*
X190655000Y-73575000D03*
D23*
X188290000Y-99822000D03*
X197790000Y-99822000D03*
X193040000Y-99822000D03*
M02*
