M48
; DRILL file {KiCad (6.0.1)} date Mon Sep 26 11:52:50 2022
; FORMAT={-:-/ absolute / metric / decimal}
; #@! TF.CreationDate,2022-09-26T11:52:50-04:00
; #@! TF.GenerationSoftware,Kicad,Pcbnew,(6.0.1)
; #@! TF.FileFunction,Plated,1,2,PTH
FMAT,2
METRIC
; #@! TA.AperFunction,Plated,PTH,ViaDrill
T1C0.400
; #@! TA.AperFunction,Plated,PTH,ComponentDrill
T2C1.000
; #@! TA.AperFunction,Plated,PTH,ComponentDrill
T3C1.850
%
G90
G05
T1
X164.0Y-86.5
X166.0Y-72.7
X166.1Y-104.7
X166.4Y-92.5
X167.1Y-88.8
X167.1Y-99.6
X167.2Y-94.3
X167.63Y-98.752
X167.7Y-88.0
X167.8Y-89.7
X168.234Y-97.955
X168.7Y-88.8
X168.713Y-97.077
X169.15Y-91.477
X170.6Y-84.6
X172.8Y-89.3
X173.6Y-90.0
X174.4Y-89.3
X174.4Y-93.125
X174.413Y-94.138
X175.7Y-92.2
X176.0Y-94.7
X176.8Y-97.9
X177.1Y-90.8
X177.2Y-94.8
X178.9Y-97.1
X179.5Y-85.2
X180.0Y-96.4
X180.7Y-90.9
X181.1Y-97.2
X181.8Y-98.5
X182.487Y-100.213
X190.7Y-94.1
X203.4Y-104.6
X203.6Y-72.6
X205.3Y-88.8
X206.925Y-84.8
X207.0Y-100.9
X207.3Y-80.8
X207.6Y-106.6
T2
X167.8Y-103.3
X170.34Y-103.3
X172.2Y-76.06
X172.2Y-78.6
X172.88Y-103.3
X174.74Y-76.06
X174.74Y-78.6
X175.42Y-103.3
X177.28Y-76.06
X177.28Y-78.6
X177.96Y-103.3
X180.5Y-103.3
X190.5Y-77.9
X193.04Y-77.9
X195.58Y-77.9
X203.0Y-75.9
X203.0Y-79.0
X205.54Y-75.9
X205.54Y-79.0
T3
X188.29Y-99.822
X193.04Y-99.822
X197.79Y-99.822
T0
M30
