G04 #@! TF.GenerationSoftware,KiCad,Pcbnew,(6.0.1)*
G04 #@! TF.CreationDate,2022-09-26T11:52:35-04:00*
G04 #@! TF.ProjectId,consolizer,636f6e73-6f6c-4697-9a65-722e6b696361,rev?*
G04 #@! TF.SameCoordinates,Original*
G04 #@! TF.FileFunction,Paste,Top*
G04 #@! TF.FilePolarity,Positive*
%FSLAX46Y46*%
G04 Gerber Fmt 4.6, Leading zero omitted, Abs format (unit mm)*
G04 Created by KiCad (PCBNEW (6.0.1)) date 2022-09-26 11:52:35*
%MOMM*%
%LPD*%
G01*
G04 APERTURE LIST*
G04 Aperture macros list*
%AMRoundRect*
0 Rectangle with rounded corners*
0 $1 Rounding radius*
0 $2 $3 $4 $5 $6 $7 $8 $9 X,Y pos of 4 corners*
0 Add a 4 corners polygon primitive as box body*
4,1,4,$2,$3,$4,$5,$6,$7,$8,$9,$2,$3,0*
0 Add four circle primitives for the rounded corners*
1,1,$1+$1,$2,$3*
1,1,$1+$1,$4,$5*
1,1,$1+$1,$6,$7*
1,1,$1+$1,$8,$9*
0 Add four rect primitives between the rounded corners*
20,1,$1+$1,$2,$3,$4,$5,0*
20,1,$1+$1,$4,$5,$6,$7,0*
20,1,$1+$1,$6,$7,$8,$9,0*
20,1,$1+$1,$8,$9,$2,$3,0*%
G04 Aperture macros list end*
%ADD10RoundRect,0.237500X0.237500X-0.287500X0.237500X0.287500X-0.237500X0.287500X-0.237500X-0.287500X0*%
%ADD11R,0.300000X1.100000*%
%ADD12R,2.300000X3.100000*%
%ADD13RoundRect,0.237500X-0.237500X0.287500X-0.237500X-0.287500X0.237500X-0.287500X0.237500X0.287500X0*%
%ADD14RoundRect,0.150000X0.512500X0.150000X-0.512500X0.150000X-0.512500X-0.150000X0.512500X-0.150000X0*%
%ADD15R,1.600000X0.550000*%
%ADD16R,0.550000X1.600000*%
G04 APERTURE END LIST*
D10*
X196500000Y-95150000D03*
X196500000Y-93400000D03*
X190700000Y-105075000D03*
X190700000Y-103325000D03*
D11*
X196170000Y-88700000D03*
X195670000Y-88700000D03*
X195170000Y-88700000D03*
X194670000Y-88700000D03*
X194170000Y-88700000D03*
X193670000Y-88700000D03*
X193170000Y-88700000D03*
X192670000Y-88700000D03*
X192170000Y-88700000D03*
X191670000Y-88700000D03*
X191170000Y-88700000D03*
X190670000Y-88700000D03*
X190170000Y-88700000D03*
X189670000Y-88700000D03*
D12*
X188000000Y-87000000D03*
X197840000Y-87000000D03*
D13*
X195500000Y-103400000D03*
X195500000Y-105150000D03*
D14*
X194037500Y-95200000D03*
X194037500Y-94250000D03*
X194037500Y-93300000D03*
X191762500Y-93300000D03*
X191762500Y-95200000D03*
D13*
X188600000Y-93425000D03*
X188600000Y-95175000D03*
D10*
X167700000Y-92900000D03*
X167700000Y-91150000D03*
D15*
X179050000Y-94800000D03*
X179050000Y-94000000D03*
X179050000Y-93200000D03*
X179050000Y-92400000D03*
X179050000Y-91600000D03*
X179050000Y-90800000D03*
X179050000Y-90000000D03*
X179050000Y-89200000D03*
D16*
X177600000Y-87750000D03*
X176800000Y-87750000D03*
X176000000Y-87750000D03*
X175200000Y-87750000D03*
X174400000Y-87750000D03*
X173600000Y-87750000D03*
X172800000Y-87750000D03*
X172000000Y-87750000D03*
D15*
X170550000Y-89200000D03*
X170550000Y-90000000D03*
X170550000Y-90800000D03*
X170550000Y-91600000D03*
X170550000Y-92400000D03*
X170550000Y-93200000D03*
X170550000Y-94000000D03*
X170550000Y-94800000D03*
D16*
X172000000Y-96250000D03*
X172800000Y-96250000D03*
X173600000Y-96250000D03*
X174400000Y-96250000D03*
X175200000Y-96250000D03*
X176000000Y-96250000D03*
X176800000Y-96250000D03*
X177600000Y-96250000D03*
D10*
X182000000Y-92900000D03*
X182000000Y-91150000D03*
D11*
X193830000Y-75275000D03*
X193330000Y-75275000D03*
X192830000Y-75275000D03*
X192330000Y-75275000D03*
D12*
X195500000Y-73575000D03*
X190655000Y-73575000D03*
M02*
